<svg width="40" height="40" viewBox="0 0 340 340" fill="none" xmlns="http://www.w3.org/2000/svg">
<g clip-path="url(#clip0_3_27)">
<g filter="url(#filter0_d_3_27)">
<path d="M141.031 37.1435C142.866 41.5736 147.588 44.0298 152.336 43.3595C164.297 41.6709 176.275 41.7195 187.945 43.3693C192.695 44.0409 197.419 41.5827 199.255 37.1502V37.1502C201.367 32.0536 207.21 29.6335 212.306 31.7446L238.197 42.4686C243.293 44.5797 245.713 50.4226 243.602 55.5191V55.5191C241.766 59.9515 243.368 65.0299 247.202 67.9141C256.62 74.9992 265.125 83.4353 272.389 93.087C275.272 96.9183 280.348 98.5202 284.778 96.6852V96.6852C289.871 94.5757 295.709 96.9941 297.819 102.087L308.548 127.99C310.658 133.083 308.24 138.922 303.147 141.031V141.031C298.717 142.866 296.26 147.588 296.931 152.336C298.619 164.297 298.57 176.276 296.92 187.945C296.248 192.696 298.707 197.419 303.14 199.256V199.256C308.236 201.367 310.657 207.21 308.545 212.307L297.822 238.196C295.711 243.293 289.867 245.713 284.771 243.602V243.602C280.338 241.766 275.259 243.368 272.375 247.202C265.29 256.62 256.854 265.124 247.203 272.388C243.372 275.271 241.77 280.347 243.605 284.777V284.777C245.714 289.871 243.296 295.71 238.203 297.819L212.3 308.548C207.207 310.658 201.368 308.239 199.259 303.146V303.146C197.423 298.716 192.702 296.259 187.953 296.93C175.993 298.618 164.014 298.57 152.344 296.92C147.594 296.249 142.87 298.707 141.034 303.14V303.14C138.923 308.236 133.08 310.657 127.984 308.546L102.094 297.822C96.997 295.71 94.5766 289.867 96.6875 284.771V284.771C98.5234 280.338 96.9215 275.26 93.0874 272.375C83.6694 265.29 75.1647 256.855 67.9013 247.203C65.0178 243.372 59.9424 241.77 55.5123 243.605V243.605C50.4194 245.714 44.5807 243.296 42.4712 238.203L31.7417 212.3C29.6321 207.207 32.0506 201.368 37.1435 199.259V199.259C41.5736 197.424 44.0298 192.702 43.3594 187.954C41.6708 175.993 41.7191 164.014 43.3689 152.344C44.0405 147.594 41.5823 142.87 37.1499 141.034V141.034C32.0535 138.923 29.6334 133.081 31.7444 127.984L42.4688 102.093C44.5798 96.9969 50.4225 94.5767 55.5189 96.6877V96.6877C59.9513 98.5237 65.0294 96.9219 67.9136 93.088C74.9988 83.6697 83.4352 75.1648 93.0869 67.9012C96.9183 65.0178 98.5202 59.9424 96.6852 55.5123V55.5123C94.5757 50.4194 96.9941 44.5807 102.087 42.4712L127.99 31.7417C133.083 29.6321 138.922 32.0506 141.031 37.1435V37.1435ZM145.653 111.017C112.998 124.543 97.4904 161.981 111.017 194.637C124.543 227.292 161.981 242.8 194.637 229.273C227.292 215.747 242.8 178.309 229.273 145.653C215.747 112.998 178.309 97.4904 145.653 111.017Z" fill="url(#paint0_linear_3_27)"/>
</g>
</g>
<defs>
<filter id="filter0_d_3_27" x="30.9793" y="30.9793" width="307.332" height="286.331" filterUnits="userSpaceOnUse" color-interpolation-filters="sRGB">
<feFlood flood-opacity="0" result="BackgroundImageFix"/>
<feColorMatrix in="SourceAlpha" type="matrix" values="0 0 0 0 0 0 0 0 0 0 0 0 0 0 0 0 0 0 127 0" result="hardAlpha"/>
<feOffset dx="25" dy="4"/>
<feGaussianBlur stdDeviation="2"/>
<feComposite in2="hardAlpha" operator="out"/>
<feColorMatrix type="matrix" values="0 0 0 0 0 0 0 0 0 0 0 0 0 0 0 0 0 0 0.25 0"/>
<feBlend mode="normal" in2="BackgroundImageFix" result="effect1_dropShadow_3_27"/>
<feBlend mode="normal" in="SourceGraphic" in2="effect1_dropShadow_3_27" result="shape"/>
</filter>
<linearGradient id="paint0_linear_3_27" x1="115.039" y1="37.1064" x2="225.251" y2="303.184" gradientUnits="userSpaceOnUse">
<stop stop-color="#C7FFA4"/>
<stop offset="0.84382" stop-color="#779963"/>
</linearGradient>
<clipPath id="clip0_3_27">
<rect width="340" height="340" fill="white"/>
</clipPath>
</defs>
</svg>
